<svg xmlns="http://www.w3.org/2000/svg" width="720" height="420" viewBox="0 0 720 420">
  <style>
    .tbl { fill:#f9fafb; stroke:#1f2937; stroke-width:1.2; }
    .title { font: bold 14px sans-serif; fill:#111827; }
    .text { font: 12px sans-serif; fill:#374151; }
    .key { font: italic 12px sans-serif; fill:#065f46; }
    .line { stroke:#6b7280; stroke-width:1.2; marker-end:url(#arrow); }
  </style>
  <defs>
    <marker id="arrow" markerWidth="10" markerHeight="10" refX="6" refY="3" orient="auto">
      <path d="M0,0 L0,6 L9,3 z" fill="#6b7280" />
    </marker>
  </defs>

  <!-- Fact: SalesFact -->
  <rect class="tbl" x="290" y="170" width="160" height="150" rx="6"/>
  <text class="title" x="300" y="190">SalesFact</text>
  <text class="text" x="300" y="210">FactID (PK)</text>
  <text class="key"  x="300" y="226">ProductKey (FK)</text>
  <text class="key"  x="300" y="242">CustomerKey (FK)</text>
  <text class="key"  x="300" y="258">DateKey (FK)</text>
  <text class="text" x="300" y="274">Quantity</text>
  <text class="text" x="300" y="290">UnitPrice</text>
  <text class="text" x="300" y="306">TotalSales</text>
  <text class="text" x="300" y="322">Country</text>

  <!-- Dim: ProductDim -->
  <rect class="tbl" x="40" y="40" width="180" height="140" rx="6"/>
  <text class="title" x="50" y="60">ProductDim</text>
  <text class="text" x="50" y="80">ProductKey (PK)</text>
  <text class="text" x="50" y="96">StockCode</text>
  <text class="text" x="50" y="112">Description</text>
  <text class="text" x="50" y="128">Category</text>

  <!-- Dim: CustomerDim -->
  <rect class="tbl" x="500" y="40" width="180" height="140" rx="6"/>
  <text class="title" x="510" y="60">CustomerDim</text>
  <text class="text" x="510" y="80">CustomerKey (PK)</text>
  <text class="text" x="510" y="96">CustomerIDOriginal</text>
  <text class="text" x="510" y="112">Country</text>
  <text class="text" x="510" y="128">Aggregates…</text>

  <!-- Dim: TimeDim -->
  <rect class="tbl" x="270" y="360" width="200" height="120" rx="6"/>
  <text class="title" x="280" y="380">TimeDim</text>
  <text class="text" x="280" y="400">DateKey (PK)</text>
  <text class="text" x="280" y="416">Date, Year, Quarter</text>
  <text class="text" x="280" y="432">Month, Day, IsWeekend</text>

  <!-- Lines -->
  <line class="line" x1="290" y1="230" x2="220" y2="160" />
  <line class="line" x1="450" y1="230" x2="500" y2="160" />
  <line class="line" x1="360" y1="320" x2="360" y2="360" />
</svg>
